<?xml version="1.0" encoding="UTF-8" standalone="no"?><svg xmlns="http://www.w3.org/2000/svg" xmlns:xlink="http://www.w3.org/1999/xlink" contentScriptType="application/ecmascript" contentStyleType="text/css" height="668px" preserveAspectRatio="none" style="width:1135px;height:668px;" version="1.1" viewBox="0 0 1135 668" width="1135px" zoomAndPan="magnify"><defs><filter height="300%" id="fq63t04k6k0or" width="300%" x="-1" y="-1"><feGaussianBlur result="blurOut" stdDeviation="2.0"/><feColorMatrix in="blurOut" result="blurOut2" type="matrix" values="0 0 0 0 0 0 0 0 0 0 0 0 0 0 0 0 0 0 .4 0"/><feOffset dx="4.0" dy="4.0" in="blurOut2" result="blurOut3"/><feBlend in="SourceGraphic" in2="blurOut3" mode="normal"/></filter></defs><g><text fill="#000000" font-family="sans-serif" font-size="18" lengthAdjust="spacingAndGlyphs" textLength="151" x="496" y="18.6855">Use Case Diagram</text><!--cluster Coming-Soon--><rect fill="#FFFFFF" filter="url(#fq63t04k6k0or)" height="281.5" style="stroke: #000000; stroke-width: 1.5;" width="250" x="262" y="56.6406"/><text fill="#000000" font-family="sans-serif" font-size="14" font-weight="bold" lengthAdjust="spacingAndGlyphs" textLength="94" x="340" y="73.1738">Coming-Soon</text><!--entity Supervisor--><ellipse cx="365" cy="102.6406" fill="#FEFECE" filter="url(#fq63t04k6k0or)" rx="8" ry="8" style="stroke: #A80036; stroke-width: 2.0;"/><path d="M365,110.6406 L365,137.6406 M352,118.6406 L378,118.6406 M365,137.6406 L352,152.6406 M365,137.6406 L378,152.6406 " fill="none" filter="url(#fq63t04k6k0or)" style="stroke: #A80036; stroke-width: 2.0;"/><text fill="#000000" font-family="sans-serif" font-size="14" lengthAdjust="spacingAndGlyphs" textLength="68" x="331" y="174.1738">Supervisor</text><ellipse cx="387.1128" cy="298.2632" fill="#FEFECE" filter="url(#fq63t04k6k0or)" rx="108.6128" ry="24.1226" style="stroke: #A80036; stroke-width: 1.5;"/><text fill="#000000" font-family="sans-serif" font-size="14" lengthAdjust="spacingAndGlyphs" textLength="192" x="291.1128" y="303.5679">Create / View / Edit / Delete All</text><!--entity User--><ellipse cx="465" cy="102.6406" fill="#FEFECE" filter="url(#fq63t04k6k0or)" rx="8" ry="8" style="stroke: #A80036; stroke-width: 2.0;"/><path d="M465,110.6406 L465,137.6406 M452,118.6406 L478,118.6406 M465,137.6406 L452,152.6406 M465,137.6406 L478,152.6406 " fill="none" filter="url(#fq63t04k6k0or)" style="stroke: #A80036; stroke-width: 2.0;"/><text fill="#000000" font-family="sans-serif" font-size="14" lengthAdjust="spacingAndGlyphs" textLength="62" x="434" y="174.1738">User Role</text><!--entity Staff--><ellipse cx="546" cy="102.6406" fill="#FEFECE" filter="url(#fq63t04k6k0or)" rx="8" ry="8" style="stroke: #A80036; stroke-width: 2.0;"/><path d="M546,110.6406 L546,137.6406 M533,118.6406 L559,118.6406 M546,137.6406 L533,152.6406 M546,137.6406 L559,152.6406 " fill="none" filter="url(#fq63t04k6k0or)" style="stroke: #A80036; stroke-width: 2.0;"/><text fill="#000000" font-family="sans-serif" font-size="14" lengthAdjust="spacingAndGlyphs" textLength="29" x="531.5" y="174.1738">Staff</text><!--entity Client--><ellipse cx="719" cy="265.6406" fill="#FEFECE" filter="url(#fq63t04k6k0or)" rx="8" ry="8" style="stroke: #A80036; stroke-width: 2.0;"/><path d="M719,273.6406 L719,300.6406 M706,281.6406 L732,281.6406 M719,300.6406 L706,315.6406 M719,300.6406 L732,315.6406 " fill="none" filter="url(#fq63t04k6k0or)" style="stroke: #A80036; stroke-width: 2.0;"/><text fill="#000000" font-family="sans-serif" font-size="14" lengthAdjust="spacingAndGlyphs" textLength="36" x="701" y="337.1738">Client</text><ellipse cx="582.0833" cy="298.0923" fill="#FEFECE" filter="url(#fq63t04k6k0or)" rx="51.0833" ry="15.4517" style="stroke: #A80036; stroke-width: 1.5;"/><text fill="#000000" font-family="sans-serif" font-size="14" lengthAdjust="spacingAndGlyphs" textLength="68" x="548.0833" y="303.397">LoginPage</text><ellipse cx="581.7628" cy="422.2932" fill="#FEFECE" filter="url(#fq63t04k6k0or)" rx="91.2628" ry="20.6526" style="stroke: #A80036; stroke-width: 1.5;"/><text fill="#000000" font-family="sans-serif" font-size="14" lengthAdjust="spacingAndGlyphs" textLength="153" x="505.2628" y="427.5979">Run Process:Homepage</text><ellipse cx="234.0183" cy="520.0923" fill="#FEFECE" filter="url(#fq63t04k6k0or)" rx="64.5183" ry="15.4517" style="stroke: #A80036; stroke-width: 1.5;"/><text fill="#000000" font-family="sans-serif" font-size="14" lengthAdjust="spacingAndGlyphs" textLength="87" x="190.5183" y="525.397">List.Customer</text><ellipse cx="444.8909" cy="520.0923" fill="#FEFECE" filter="url(#fq63t04k6k0or)" rx="41.8909" ry="15.4517" style="stroke: #A80036; stroke-width: 1.5;"/><text fill="#000000" font-family="sans-serif" font-size="14" lengthAdjust="spacingAndGlyphs" textLength="55" x="417.3909" y="525.397">List.Staff</text><ellipse cx="675.9472" cy="520.0923" fill="#FEFECE" filter="url(#fq63t04k6k0or)" rx="57.4472" ry="15.4517" style="stroke: #A80036; stroke-width: 1.5;"/><text fill="#000000" font-family="sans-serif" font-size="14" lengthAdjust="spacingAndGlyphs" textLength="77" x="637.4472" y="525.397">List.Booking</text><ellipse cx="937.9949" cy="520.0396" fill="#FEFECE" filter="url(#fq63t04k6k0or)" rx="69.9949" ry="16.399" style="stroke: #A80036; stroke-width: 1.5;"/><text fill="#000000" font-family="sans-serif" font-size="14" lengthAdjust="spacingAndGlyphs" textLength="101" x="887.4949" y="525.3443">List.Equipement</text><ellipse cx="635.0624" cy="135.0923" fill="#FEFECE" filter="url(#fq63t04k6k0or)" rx="39.0624" ry="15.4517" style="stroke: #A80036; stroke-width: 1.5;"/><text fill="#000000" font-family="sans-serif" font-size="14" lengthAdjust="spacingAndGlyphs" textLength="51" x="609.5624" y="140.397">Log Out</text><ellipse cx="416.0137" cy="627.0434" fill="#FEFECE" filter="url(#fq63t04k6k0or)" rx="115.0137" ry="25.4027" style="stroke: #A80036; stroke-width: 1.5;"/><text fill="#000000" font-family="sans-serif" font-size="14" lengthAdjust="spacingAndGlyphs" textLength="206" x="313.0137" y="632.348">Create / View / Edit / Delete Staff</text><ellipse cx="135.8821" cy="627.017" fill="#FEFECE" filter="url(#fq63t04k6k0or)" rx="129.8821" ry="28.3764" style="stroke: #A80036; stroke-width: 1.5;"/><text fill="#000000" font-family="sans-serif" font-size="14" lengthAdjust="spacingAndGlyphs" textLength="238" x="16.8821" y="632.3217">Create / View / Edit / Delete Customer</text><ellipse cx="691.205" cy="627.0816" fill="#FEFECE" filter="url(#fq63t04k6k0or)" rx="125.205" ry="27.441" style="stroke: #A80036; stroke-width: 1.5;"/><text fill="#000000" font-family="sans-serif" font-size="14" lengthAdjust="spacingAndGlyphs" textLength="228" x="577.205" y="632.3863">Create / View / Edit / Delete Booking</text><ellipse cx="987.9693" cy="627.3345" fill="#FEFECE" filter="url(#fq63t04k6k0or)" rx="136.4693" ry="29.6939" style="stroke: #A80036; stroke-width: 1.5;"/><text fill="#000000" font-family="sans-serif" font-size="14" lengthAdjust="spacingAndGlyphs" textLength="252" x="861.9693" y="632.6392">Create / View / Edit / Delete Equipement</text><!--reverse link LoginPage to Client--><path d="M638.061,298.1406 C660.463,298.1406 684.701,298.1406 700.754,298.1406 " fill="none" id="LoginPage&lt;-Client" style="stroke: #A80036; stroke-width: 1.0; stroke-dasharray: 7.0,7.0;"/><polygon fill="#A80036" points="633.014,298.1406,642.014,302.1406,638.014,298.1406,642.014,294.1406,633.014,298.1406" style="stroke: #A80036; stroke-width: 1.0;"/><text fill="#000000" font-family="sans-serif" font-size="13" lengthAdjust="spacingAndGlyphs" textLength="31" x="651.5" y="291.6357">NO!!!!</text><!--link Supervisor to CVEDA--><path d="M370.723,178.0216 C374.621,206.5516 379.679,243.5646 383.115,268.7076 " fill="none" id="Supervisor-&gt;CVEDA" style="stroke: #A80036; stroke-width: 1.0; stroke-dasharray: 1.0,3.0;"/><polygon fill="#A80036" points="383.822,273.8856,386.5664,264.4269,383.1449,268.9317,378.6401,265.5102,383.822,273.8856" style="stroke: #A80036; stroke-width: 1.0;"/><text fill="#000000" font-family="sans-serif" font-size="13" lengthAdjust="spacingAndGlyphs" textLength="50" x="378" y="222.1357">I am god</text><!--reverse link User to Supervisor--><path d="M428.845,135.1406 C419.022,135.1406 409.198,135.1406 399.375,135.1406 " fill="none" id="User&lt;-Supervisor" style="stroke: #A80036; stroke-width: 1.0; stroke-dasharray: 1.0,3.0;"/><polygon fill="#A80036" points="433.982,135.1406,424.982,131.1406,428.982,135.1406,424.982,139.1406,433.982,135.1406" style="stroke: #A80036; stroke-width: 1.0;"/><!--link Staff to User--><path d="M530.768,135.1406 C520.901,135.1406 511.034,135.1406 501.168,135.1406 " fill="none" id="Staff-&gt;User" style="stroke: #A80036; stroke-width: 1.0; stroke-dasharray: 1.0,3.0;"/><polygon fill="#A80036" points="496.008,135.1406,505.008,139.1406,501.008,135.1406,505.008,131.1406,496.008,135.1406" style="stroke: #A80036; stroke-width: 1.0;"/><!--link User to LoginPage--><path d="M495.435,178.0216 C519.019,210.4746 550.579,253.9026 568.347,278.3526 " fill="none" id="User-&gt;LoginPage" style="stroke: #A80036; stroke-width: 1.0; stroke-dasharray: 1.0,3.0;"/><polygon fill="#A80036" points="571.499,282.6906,569.4424,273.0589,568.559,278.6463,562.9715,277.7629,571.499,282.6906" style="stroke: #A80036; stroke-width: 1.0;"/><!--link User to UC4--><path d="M478.399,92.4546 C488.439,69.1256 504.93,43.0996 530.5,33.6406 C543.005,29.0146 547.995,29.0146 560.5,33.6406 C596.249,46.8646 617.862,89.1666 628.011,114.7976 " fill="none" id="User-&gt;UC4" style="stroke: #A80036; stroke-width: 1.0; stroke-dasharray: 1.0,3.0;"/><polygon fill="#A80036" points="629.889,119.6876,630.3956,109.8518,628.096,115.0202,622.9277,112.7206,629.889,119.6876" style="stroke: #A80036; stroke-width: 1.0;"/><!--link Staff to UC4--><path d="M561.297,135.1406 C571.104,135.1406 580.91,135.1406 590.717,135.1406 " fill="none" id="Staff-&gt;UC4" style="stroke: #A80036; stroke-width: 1.0;"/><polygon fill="#A80036" points="595.845,135.1406,586.845,131.1406,590.845,135.1406,586.845,139.1406,595.845,135.1406" style="stroke: #A80036; stroke-width: 1.0;"/><!--link Staff to LoginPage--><path d="M555.365,178.0216 C562.522,210.0316 572.067,252.7186 577.573,277.3406 " fill="none" id="Staff-&gt;LoginPage" style="stroke: #A80036; stroke-width: 1.0;"/><polygon fill="#A80036" points="578.684,282.3096,580.6253,272.654,577.5938,277.4299,572.8178,274.3984,578.684,282.3096" style="stroke: #A80036; stroke-width: 1.0;"/><!--link LoginPage to Proc1--><path d="M582,314.1006 C582,334.6536 582,371.8786 582,396.5586 " fill="none" id="LoginPage-&gt;Proc1" style="stroke: #A80036; stroke-width: 1.0;"/><polygon fill="#A80036" points="582,401.6236,586,392.6236,582,396.6236,578,392.6236,582,401.6236" style="stroke: #A80036; stroke-width: 1.0;"/><!--link Proc1 to Proc2--><path d="M526.474,438.4586 C457.93,457.3666 342.675,489.1616 279.246,506.6586 " fill="none" id="Proc1-&gt;Proc2" style="stroke: #A80036; stroke-width: 1.0;"/><polygon fill="#A80036" points="274.395,507.9966,284.1347,509.4586,279.2149,506.6667,282.0068,501.7468,274.395,507.9966" style="stroke: #A80036; stroke-width: 1.0;"/><!--link Proc1 to Proc3--><path d="M555.26,441.8786 C529.895,459.6516 492.178,486.0816 468.092,502.9596 " fill="none" id="Proc1-&gt;Proc3" style="stroke: #A80036; stroke-width: 1.0;"/><polygon fill="#A80036" points="463.759,505.9956,473.4247,504.1051,467.8533,503.1256,468.8327,497.5542,463.759,505.9956" style="stroke: #A80036; stroke-width: 1.0;"/><!--link Proc1 to Proc4--><path d="M601.022,442.5676 C617.88,459.7836 642.287,484.7106 658.628,501.3986 " fill="none" id="Proc1-&gt;Proc4" style="stroke: #A80036; stroke-width: 1.0;"/><polygon fill="#A80036" points="662.19,505.0366,658.7512,495.8076,658.6918,501.4641,653.0353,501.4047,662.19,505.0366" style="stroke: #A80036; stroke-width: 1.0;"/><!--link Proc1 to Proc5--><path d="M638.409,438.3516 C707.485,456.9796 823.357,488.2256 888.913,505.9036 " fill="none" id="Proc1-&gt;Proc5" style="stroke: #A80036; stroke-width: 1.0;"/><polygon fill="#A80036" points="893.932,507.2576,886.2835,501.0527,889.1044,505.9561,884.201,508.7769,893.932,507.2576" style="stroke: #A80036; stroke-width: 1.0;"/><!--link Proc2 to CVEDC--><path d="M220.374,535.7406 C206.075,551.0606 183.171,575.6004 164.832,595.2487 " fill="none" id="Proc2-&gt;CVEDC" style="stroke: #A80036; stroke-width: 1.0;"/><polygon fill="#A80036" points="161.229,599.109,170.2947,595.2602,164.6412,595.4543,164.4471,589.8007,161.229,599.109" style="stroke: #A80036; stroke-width: 1.0;"/><!--link Proc3 to CVEDS--><path d="M440.968,535.7406 C436.635,551.4286 429.632,576.7847 424.143,596.6561 " fill="none" id="Proc3-&gt;CVEDS" style="stroke: #A80036; stroke-width: 1.0;"/><polygon fill="#A80036" points="422.783,601.5808,429.0351,593.9709,424.1144,596.7613,421.3239,591.8406,422.783,601.5808" style="stroke: #A80036; stroke-width: 1.0;"/><!--link Proc4 to CVEDB--><path d="M678.086,535.7406 C680.234,550.7806 683.652,574.7065 686.432,594.1667 " fill="none" id="Proc4-&gt;CVEDB" style="stroke: #A80036; stroke-width: 1.0;"/><polygon fill="#A80036" points="687.198,599.5259,689.8847,590.0506,686.4908,594.5762,681.9652,591.1822,687.198,599.5259" style="stroke: #A80036; stroke-width: 1.0;"/><!--link Proc5 to CVEDE--><path d="M945.378,536.6336 C952.39,551.3586 963.165,573.9862 972.126,592.8055 " fill="none" id="Proc5-&gt;CVEDE" style="stroke: #A80036; stroke-width: 1.0;"/><polygon fill="#A80036" points="974.362,597.5009,974.1039,587.6554,972.2123,592.9866,966.8811,591.095,974.362,597.5009" style="stroke: #A80036; stroke-width: 1.0;"/><!--
@startuml


title Use Case Diagram 


rectangle Coming-Soon {
    :Supervisor:
    usecase (Create / View / Edit / Delete All) as CVEDA
    :User Role: as User
}


:Staff:
:Client:


(LoginPage)
(Run Process:Homepage) as (Proc1)
usecase (List.Customer) as (Proc2)
usecase (List.Staff) as (Proc3)
usecase (List.Booking) as (Proc4)
usecase (List.Equipement) as (Proc5)
usecase (Log Out) as UC4
usecase (Create / View / Edit / Delete Staff) as CVEDS
usecase (Create / View / Edit / Delete Customer) as CVEDC
usecase (Create / View / Edit / Delete Booking) as CVEDB
usecase (Create / View / Edit / Delete Equipement) as CVEDE


Client .left.> (LoginPage) : NO!!!!
Supervisor ~~> (CVEDA): I am god
User <~ Supervisor
Staff ~> User
User ~~> (LoginPage)
User ~> (UC4)
Staff -> (UC4)
Staff - -> (LoginPage)
(LoginPage) - -> (Proc1)
(Proc1) - -> (Proc2)
(Proc1) - -> (Proc3)
(Proc1) - -> (Proc4)
(Proc1) - -> (Proc5)
(Proc2) -d-> (CVEDC)
(Proc3) -d-> (CVEDS)
(Proc4) -d-> (CVEDB)
(Proc5) -d-> (CVEDE)




@enduml

PlantUML version 1.2019.09(Mon Aug 26 18:19:51 CEST 2019)
(GPL source distribution)
Java Runtime: Java(TM) SE Runtime Environment
JVM: Java HotSpot(TM) 64-Bit Server VM
Java Version: 1.8.0_231-b11
Operating System: Windows 10
OS Version: 10.0
Default Encoding: Cp1252
Language: fr
Country: FR
--></g></svg>