<?xml version="1.0" encoding="UTF-8" standalone="no"?><svg xmlns="http://www.w3.org/2000/svg" xmlns:xlink="http://www.w3.org/1999/xlink" contentScriptType="application/ecmascript" contentStyleType="text/css" height="446px" preserveAspectRatio="none" style="width:684px;height:446px;" version="1.1" viewBox="0 0 684 446" width="684px" zoomAndPan="magnify"><defs><filter height="300%" id="f15ct9a6xnshci" width="300%" x="-1" y="-1"><feGaussianBlur result="blurOut" stdDeviation="2.0"/><feColorMatrix in="blurOut" result="blurOut2" type="matrix" values="0 0 0 0 0 0 0 0 0 0 0 0 0 0 0 0 0 0 .4 0"/><feOffset dx="4.0" dy="4.0" in="blurOut2" result="blurOut3"/><feBlend in="SourceGraphic" in2="blurOut3" mode="normal"/></filter></defs><g><text fill="#000000" font-family="sans-serif" font-size="18" lengthAdjust="spacingAndGlyphs" textLength="256" x="218" y="18.6855">Use Case Diagram - reservation</text><!--entity Staff--><ellipse cx="92" cy="159.6406" fill="#FEFECE" filter="url(#f15ct9a6xnshci)" rx="8" ry="8" style="stroke: #A80036; stroke-width: 2.0;"/><path d="M92,167.6406 L92,194.6406 M79,175.6406 L105,175.6406 M92,194.6406 L79,209.6406 M92,194.6406 L105,209.6406 " fill="none" filter="url(#f15ct9a6xnshci)" style="stroke: #A80036; stroke-width: 2.0;"/><text fill="#000000" font-family="sans-serif" font-size="14" lengthAdjust="spacingAndGlyphs" textLength="29" x="77.5" y="231.1738">Staff</text><!--entity Client--><ellipse cx="24" cy="159.6406" fill="#FEFECE" filter="url(#f15ct9a6xnshci)" rx="8" ry="8" style="stroke: #A80036; stroke-width: 2.0;"/><path d="M24,167.6406 L24,194.6406 M11,175.6406 L37,175.6406 M24,194.6406 L11,209.6406 M24,194.6406 L37,209.6406 " fill="none" filter="url(#f15ct9a6xnshci)" style="stroke: #A80036; stroke-width: 2.0;"/><text fill="#000000" font-family="sans-serif" font-size="14" lengthAdjust="spacingAndGlyphs" textLength="36" x="6" y="231.1738">Client</text><ellipse cx="58.0833" cy="51.0923" fill="#FEFECE" filter="url(#f15ct9a6xnshci)" rx="51.0833" ry="15.4517" style="stroke: #A80036; stroke-width: 1.5;"/><text fill="#000000" font-family="sans-serif" font-size="14" lengthAdjust="spacingAndGlyphs" textLength="68" x="24.0833" y="56.397">LoginPage</text><ellipse cx="235.7628" cy="51.2932" fill="#FEFECE" filter="url(#f15ct9a6xnshci)" rx="91.2628" ry="20.6526" style="stroke: #A80036; stroke-width: 1.5;"/><text fill="#000000" font-family="sans-serif" font-size="14" lengthAdjust="spacingAndGlyphs" textLength="153" x="159.2628" y="56.5979">Run Process:Homepage</text><ellipse cx="419.9472" cy="51.0923" fill="#FEFECE" filter="url(#f15ct9a6xnshci)" rx="57.4472" ry="15.4517" style="stroke: #A80036; stroke-width: 1.5;"/><text fill="#000000" font-family="sans-serif" font-size="14" lengthAdjust="spacingAndGlyphs" textLength="77" x="381.4472" y="56.397">List.Booking</text><ellipse cx="593.1792" cy="51.1765" fill="#FEFECE" filter="url(#f15ct9a6xnshci)" rx="80.6792" ry="18.5358" style="stroke: #A80036; stroke-width: 1.5;"/><text fill="#000000" font-family="sans-serif" font-size="14" lengthAdjust="spacingAndGlyphs" textLength="128" x="529.1792" y="56.4812">Create New Booking</text><ellipse cx="218.1188" cy="312.9644" fill="#FEFECE" filter="url(#f15ct9a6xnshci)" rx="69.6188" ry="16.3238" style="stroke: #A80036; stroke-width: 1.5;"/><text fill="#000000" font-family="sans-serif" font-size="14" lengthAdjust="spacingAndGlyphs" textLength="100" x="168.1188" y="318.2691">View dispo Staff</text><ellipse cx="415.0005" cy="313.2407" fill="#FEFECE" filter="url(#f15ct9a6xnshci)" rx="68.5005" ry="16.1001" style="stroke: #A80036; stroke-width: 1.5;"/><text fill="#000000" font-family="sans-serif" font-size="14" lengthAdjust="spacingAndGlyphs" textLength="97" x="366.5005" y="318.5454">Choose Activity</text><ellipse cx="425.2471" cy="413.69" fill="#FEFECE" filter="url(#f15ct9a6xnshci)" rx="88.2471" ry="20.0494" style="stroke: #A80036; stroke-width: 1.5;"/><text fill="#000000" font-family="sans-serif" font-size="14" lengthAdjust="spacingAndGlyphs" textLength="146" x="352.2471" y="418.9947">View dispo Equipement</text><ellipse cx="593.1262" cy="312.9659" fill="#FEFECE" filter="url(#f15ct9a6xnshci)" rx="74.6262" ry="17.3252" style="stroke: #A80036; stroke-width: 1.5;"/><text fill="#000000" font-family="sans-serif" font-size="14" lengthAdjust="spacingAndGlyphs" textLength="113" x="536.6262" y="318.2706">Choose New Date</text><ellipse cx="203.2239" cy="413.7854" fill="#FEFECE" filter="url(#f15ct9a6xnshci)" rx="98.7239" ry="22.1448" style="stroke: #A80036; stroke-width: 1.5;"/><text fill="#000000" font-family="sans-serif" font-size="14" lengthAdjust="spacingAndGlyphs" textLength="170" x="118.2239" y="419.0901">Reservation Order Impress</text><!--reverse link LoginPage to Client--><path d="M44.3319,70.6316 C38.5117,79.5416 32.3114,90.6596 29,101.6406 C24.4171,116.8386 22.6924,134.1336 22.2759,149.4426 " fill="none" id="LoginPage&lt;-Client" style="stroke: #A80036; stroke-width: 1.0; stroke-dasharray: 7.0,7.0;"/><polygon fill="#A80036" points="47.1442,66.4456,38.8048,71.6853,44.3558,70.5959,45.4452,76.1468,47.1442,66.4456" style="stroke: #A80036; stroke-width: 1.0;"/><text fill="#000000" font-family="sans-serif" font-size="13" lengthAdjust="spacingAndGlyphs" textLength="31" x="30" y="116.1357">NO!!!!</text><!--link Client to Staff--><path d="M47.2166,192.1406 C55.3786,192.1406 63.5406,192.1406 71.7027,192.1406 " fill="none" id="Client-Staff" style="stroke: #A80036; stroke-width: 1.0;"/><polygon fill="#A80036" points="76.7847,192.1406,67.7847,188.1406,71.7847,192.1406,67.7847,196.1406,76.7847,192.1406" style="stroke: #A80036; stroke-width: 1.0;"/><polygon fill="#A80036" points="42.0625,192.1406,51.0625,196.1406,47.0625,192.1406,51.0625,188.1406,42.0625,192.1406" style="stroke: #A80036; stroke-width: 1.0;"/><!--link Staff to LoginPage--><path d="M81.7872,149.3886 C75.5002,123.6856 67.7314,91.9246 62.8196,71.8446 " fill="none" id="Staff-&gt;LoginPage" style="stroke: #A80036; stroke-width: 1.0;"/><polygon fill="#A80036" points="61.5743,66.7536,59.8256,76.446,62.7615,71.6106,67.5968,74.5465,61.5743,66.7536" style="stroke: #A80036; stroke-width: 1.0;"/><!--link LoginPage to Proc1--><path d="M109.105,51.1406 C119.095,51.1406 129.085,51.1406 139.075,51.1406 " fill="none" id="LoginPage-&gt;Proc1" style="stroke: #A80036; stroke-width: 1.0;"/><polygon fill="#A80036" points="144.299,51.1406,135.299,47.1406,139.299,51.1406,135.299,55.1406,144.299,51.1406" style="stroke: #A80036; stroke-width: 1.0;"/><!--link Proc1 to Proc4--><path d="M327.641,51.1406 C337.472,51.1406 347.303,51.1406 357.134,51.1406 " fill="none" id="Proc1-&gt;Proc4" style="stroke: #A80036; stroke-width: 1.0;"/><polygon fill="#A80036" points="362.275,51.1406,353.275,47.1406,357.275,51.1406,353.275,55.1406,362.275,51.1406" style="stroke: #A80036; stroke-width: 1.0;"/><!--link Proc4 to CNB--><path d="M477.779,51.1406 C487.617,51.1406 497.454,51.1406 507.291,51.1406 " fill="none" id="Proc4-&gt;CNB" style="stroke: #A80036; stroke-width: 1.0;"/><polygon fill="#A80036" points="512.436,51.1406,503.436,47.1406,507.436,51.1406,503.436,55.1406,512.436,51.1406" style="stroke: #A80036; stroke-width: 1.0;"/><!--link CNB to CND--><path d="M593,70.0116 C593,116.2826 593,239.8936 593,290.2926 " fill="none" id="CNB-&gt;CND" style="stroke: #A80036; stroke-width: 1.0;"/><polygon fill="#A80036" points="593,295.5026,597,286.5026,593,290.5026,589,286.5026,593,295.5026" style="stroke: #A80036; stroke-width: 1.0;"/><!--reverse link CA to CND--><path d="M488.963,313.1406 C498.767,313.1406 508.572,313.1406 518.376,313.1406 " fill="none" id="CA&lt;-CND" style="stroke: #A80036; stroke-width: 1.0;"/><polygon fill="#A80036" points="483.836,313.1406,492.836,317.1406,488.836,313.1406,492.836,309.1406,483.836,313.1406" style="stroke: #A80036; stroke-width: 1.0;"/><!--reverse link VDS to CA--><path d="M292.687,313.1406 C310.574,313.1406 328.46,313.1406 346.346,313.1406 " fill="none" id="VDS&lt;-CA" style="stroke: #A80036; stroke-width: 1.0;"/><polygon fill="#A80036" points="287.643,313.1406,296.643,317.1406,292.643,313.1406,296.643,309.1406,287.643,313.1406" style="stroke: #A80036; stroke-width: 1.0;"/><!--link CA to VDE--><path d="M416.563,329.5316 C418.159,345.2588 420.662,369.9152 422.528,388.2933 " fill="none" id="CA-&gt;VDE" style="stroke: #A80036; stroke-width: 1.0;"/><polygon fill="#A80036" points="423.036,393.2977,426.1063,383.9397,422.5308,388.3233,418.1472,384.7479,423.036,393.2977" style="stroke: #A80036; stroke-width: 1.0;"/><!--link VDS to ROI--><path d="M215.59,329.9666 C213.293,345.0472 209.791,368.0449 207.063,385.9594 " fill="none" id="VDS-&gt;ROI" style="stroke: #A80036; stroke-width: 1.0;"/><polygon fill="#A80036" points="206.244,391.3415,211.5536,383.0464,206.9969,386.3985,203.6448,381.8418,206.244,391.3415" style="stroke: #A80036; stroke-width: 1.0;"/><!--reverse link ROI to VDE--><path d="M307.072,413.6406 C317.039,413.6406 327.006,413.6406 336.974,413.6406 " fill="none" id="ROI&lt;-VDE" style="stroke: #A80036; stroke-width: 1.0;"/><polygon fill="#A80036" points="301.859,413.6406,310.859,417.6406,306.859,413.6406,310.859,409.6406,301.859,413.6406" style="stroke: #A80036; stroke-width: 1.0;"/><!--
@startuml

title Use Case Diagram - reservation

:Staff:
:Client:

(LoginPage)
(Run Process:Homepage) as (Proc1)
usecase (List.Booking) as (Proc4)
usecase (Create New Booking) as CNB
usecase ( View dispo Staff) as VDS
usecase ( Choose Activity) as CA
usecase ( View dispo Equipement) as VDE
usecase ( Choose New Date) as CND
usecase ( Reservation Order Impress) as ROI

Client .u.> (LoginPage) : NO!!!!

Staff <-l->Client
Staff -r-> (LoginPage)
(LoginPage) -r-> (Proc1)
(Proc1) -r-> (Proc4)
(Proc4) -r-> (CNB)
(CNB) - - -> (CND)
(CND) -l-> (CA)
(CA) -l-> (VDS)
(CA) -> (VDE)
(VDS) -d-> (ROI)
(VDE) -l-> (ROI)

@enduml

PlantUML version 1.2019.09(Mon Aug 26 18:19:51 CEST 2019)
(GPL source distribution)
Java Runtime: Java(TM) SE Runtime Environment
JVM: Java HotSpot(TM) 64-Bit Server VM
Java Version: 1.8.0_231-b11
Operating System: Windows 10
OS Version: 10.0
Default Encoding: Cp1252
Language: fr
Country: FR
--></g></svg>