<?xml version="1.0" encoding="UTF-8" standalone="no"?><svg xmlns="http://www.w3.org/2000/svg" xmlns:xlink="http://www.w3.org/1999/xlink" contentScriptType="application/ecmascript" contentStyleType="text/css" height="949px" preserveAspectRatio="none" style="width:627px;height:949px;" version="1.1" viewBox="0 0 627 949" width="627px" zoomAndPan="magnify"><defs><filter height="300%" id="fb47zdxyp9rhc" width="300%" x="-1" y="-1"><feGaussianBlur result="blurOut" stdDeviation="2.0"/><feColorMatrix in="blurOut" result="blurOut2" type="matrix" values="0 0 0 0 0 0 0 0 0 0 0 0 0 0 0 0 0 0 .4 0"/><feOffset dx="4.0" dy="4.0" in="blurOut2" result="blurOut3"/><feBlend in="SourceGraphic" in2="blurOut3" mode="normal"/></filter></defs><g><text fill="#000000" font-family="sans-serif" font-size="18" lengthAdjust="spacingAndGlyphs" textLength="117" x="259" y="18.6855">Class Diagram</text><!--class Customer--><rect fill="#FEFECE" filter="url(#fb47zdxyp9rhc)" height="371.3086" id="Customer" style="stroke: #A80036; stroke-width: 1.5;" width="125" x="6" y="40.6406"/><ellipse cx="38.1" cy="56.6406" fill="#ADD1B2" rx="11" ry="11" style="stroke: #A80036; stroke-width: 1.0;"/><path d="M40.8656,52.5156 Q41.0219,52.2969 41.2094,52.1875 Q41.3969,52.0781 41.6156,52.0781 Q41.9906,52.0781 42.225,52.3359 Q42.4594,52.5938 42.4594,53.2031 L42.4594,54.6563 Q42.4594,55.2656 42.225,55.5313 Q41.9906,55.7969 41.6156,55.7969 Q41.2719,55.7969 41.0688,55.5938 Q40.8656,55.4063 40.7563,54.8906 Q40.7094,54.5313 40.5219,54.3438 Q40.1938,53.9688 39.5844,53.75 Q38.975,53.5313 38.35,53.5313 Q37.5844,53.5313 36.9516,53.8594 Q36.3188,54.1875 35.8266,54.9375 Q35.3344,55.6875 35.3344,56.7188 L35.3344,57.8125 Q35.3344,59.0469 36.225,59.8672 Q37.1156,60.6875 38.7094,60.6875 Q39.6469,60.6875 40.3031,60.4375 Q40.6938,60.2813 41.1156,59.8438 Q41.3813,59.5781 41.5297,59.5 Q41.6781,59.4219 41.8813,59.4219 Q42.2094,59.4219 42.4672,59.6797 Q42.725,59.9375 42.725,60.2813 Q42.725,60.625 42.3813,61.0313 Q41.8813,61.6094 41.0844,61.9375 Q40.0063,62.3906 38.7094,62.3906 Q37.1938,62.3906 35.9906,61.7656 Q35.0063,61.2656 34.3188,60.1953 Q33.6313,59.125 33.6313,57.8438 L33.6313,56.6875 Q33.6313,55.3594 34.2484,54.2109 Q34.8656,53.0625 35.9594,52.4453 Q37.0531,51.8281 38.2875,51.8281 Q39.0219,51.8281 39.6703,51.9922 Q40.3188,52.1563 40.8656,52.5156 Z "/><text fill="#000000" font-family="sans-serif" font-size="12" lengthAdjust="spacingAndGlyphs" textLength="55" x="55.9" y="61.5508">Customer</text><line style="stroke: #A80036; stroke-width: 1.5;" x1="7" x2="130" y1="72.6406" y2="72.6406"/><text fill="#000000" font-family="sans-serif" font-size="11" lengthAdjust="spacingAndGlyphs" textLength="26" x="12" y="105.8955">-Int id</text><text fill="#000000" font-family="sans-serif" font-size="11" lengthAdjust="spacingAndGlyphs" textLength="80" x="12" y="119.7314">-String firstname</text><text fill="#000000" font-family="sans-serif" font-size="11" lengthAdjust="spacingAndGlyphs" textLength="78" x="12" y="133.5674">-String lastname</text><text fill="#000000" font-family="sans-serif" font-size="11" lengthAdjust="spacingAndGlyphs" textLength="59" x="12" y="147.4033">-String email</text><text fill="#000000" font-family="sans-serif" font-size="11" lengthAdjust="spacingAndGlyphs" textLength="69" x="12" y="161.2393">-String adress</text><text fill="#000000" font-family="sans-serif" font-size="11" lengthAdjust="spacingAndGlyphs" textLength="65" x="12" y="175.0752">-String phone</text><text fill="#000000" font-family="sans-serif" font-size="11" lengthAdjust="spacingAndGlyphs" textLength="76" x="12" y="188.9111">-date birth_date</text><text fill="#000000" font-family="sans-serif" font-size="11" lengthAdjust="spacingAndGlyphs" textLength="110" x="12" y="202.7471">-String coastal_license</text><text fill="#000000" font-family="sans-serif" font-size="11" lengthAdjust="spacingAndGlyphs" textLength="63" x="12" y="216.583">-int reduction</text><text fill="#000000" font-family="sans-serif" font-size="11" lengthAdjust="spacingAndGlyphs" textLength="0" x="15" y="230.4189"/><line style="stroke: #A80036; stroke-width: 1.5;" x1="7" x2="51" y1="87.5586" y2="87.5586"/><text fill="#000000" font-family="sans-serif" font-size="11" lengthAdjust="spacingAndGlyphs" textLength="35" x="51" y="91.5596">Attribut</text><line style="stroke: #A80036; stroke-width: 1.5;" x1="86" x2="130" y1="87.5586" y2="87.5586"/><line style="stroke: #A80036; stroke-width: 1.0;" x1="7" x2="51" y1="243.7539" y2="243.7539"/><text fill="#000000" font-family="sans-serif" font-size="11" lengthAdjust="spacingAndGlyphs" textLength="35" x="51" y="247.7549">Method</text><line style="stroke: #A80036; stroke-width: 1.0;" x1="86" x2="130" y1="243.7539" y2="243.7539"/><text fill="#000000" font-family="sans-serif" font-size="11" lengthAdjust="spacingAndGlyphs" textLength="57" x="12" y="282.8447">+getId() : Int</text><text fill="#000000" font-family="sans-serif" font-size="11" lengthAdjust="spacingAndGlyphs" textLength="113" x="12" y="296.6807">+getFirstname() : String</text><line style="stroke: #A80036; stroke-width: 1.0; stroke-dasharray: 1.0,2.0;" x1="7" x2="53.5" y1="264.5078" y2="264.5078"/><text fill="#000000" font-family="sans-serif" font-size="11" lengthAdjust="spacingAndGlyphs" textLength="30" x="53.5" y="268.5088">Getter</text><line style="stroke: #A80036; stroke-width: 1.0; stroke-dasharray: 1.0,2.0;" x1="83.5" x2="130" y1="264.5078" y2="264.5078"/><line style="stroke: #A80036; stroke-width: 1.0; stroke-dasharray: 1.0,2.0;" x1="7" x2="130" y1="303.0977" y2="303.0977"/><text fill="#000000" font-family="sans-serif" font-size="11" lengthAdjust="spacingAndGlyphs" textLength="97" x="12" y="318.5166">and other Getters ...</text><text fill="#000000" font-family="sans-serif" font-size="11" lengthAdjust="spacingAndGlyphs" textLength="0" x="15" y="332.3525"/><text fill="#000000" font-family="sans-serif" font-size="11" lengthAdjust="spacingAndGlyphs" textLength="113" x="12" y="364.0244">+setFirstname() : String</text><text fill="#000000" font-family="sans-serif" font-size="11" lengthAdjust="spacingAndGlyphs" textLength="113" x="12" y="377.8604">+setLastname() : String</text><text fill="#000000" font-family="sans-serif" font-size="11" lengthAdjust="spacingAndGlyphs" textLength="6" x="12" y="391.6963">..</text><text fill="#000000" font-family="sans-serif" font-size="11" lengthAdjust="spacingAndGlyphs" textLength="96" x="12" y="405.5322">and other Setters ...</text><line style="stroke: #A80036; stroke-width: 1.0; stroke-dasharray: 1.0,2.0;" x1="7" x2="54" y1="345.6875" y2="345.6875"/><text fill="#000000" font-family="sans-serif" font-size="11" lengthAdjust="spacingAndGlyphs" textLength="29" x="54" y="349.6885">Setter</text><line style="stroke: #A80036; stroke-width: 1.0; stroke-dasharray: 1.0,2.0;" x1="83" x2="130" y1="345.6875" y2="345.6875"/><!--class Equipement--><rect fill="#FEFECE" filter="url(#fb47zdxyp9rhc)" height="390.9805" id="Equipement" style="stroke: #A80036; stroke-width: 1.5;" width="132" x="484.5" y="30.6406"/><ellipse cx="514.35" cy="46.6406" fill="#ADD1B2" rx="11" ry="11" style="stroke: #A80036; stroke-width: 1.0;"/><path d="M517.1156,42.5156 Q517.2719,42.2969 517.4594,42.1875 Q517.6469,42.0781 517.8656,42.0781 Q518.2406,42.0781 518.475,42.3359 Q518.7094,42.5938 518.7094,43.2031 L518.7094,44.6563 Q518.7094,45.2656 518.475,45.5313 Q518.2406,45.7969 517.8656,45.7969 Q517.5219,45.7969 517.3188,45.5938 Q517.1156,45.4063 517.0063,44.8906 Q516.9594,44.5313 516.7719,44.3438 Q516.4438,43.9688 515.8344,43.75 Q515.225,43.5313 514.6,43.5313 Q513.8344,43.5313 513.2016,43.8594 Q512.5688,44.1875 512.0766,44.9375 Q511.5844,45.6875 511.5844,46.7188 L511.5844,47.8125 Q511.5844,49.0469 512.475,49.8672 Q513.3656,50.6875 514.9594,50.6875 Q515.8969,50.6875 516.5531,50.4375 Q516.9438,50.2813 517.3656,49.8438 Q517.6313,49.5781 517.7797,49.5 Q517.9281,49.4219 518.1313,49.4219 Q518.4594,49.4219 518.7172,49.6797 Q518.975,49.9375 518.975,50.2813 Q518.975,50.625 518.6313,51.0313 Q518.1313,51.6094 517.3344,51.9375 Q516.2563,52.3906 514.9594,52.3906 Q513.4438,52.3906 512.2406,51.7656 Q511.2563,51.2656 510.5688,50.1953 Q509.8813,49.125 509.8813,47.8438 L509.8813,46.6875 Q509.8813,45.3594 510.4984,44.2109 Q511.1156,43.0625 512.2094,42.4453 Q513.3031,41.8281 514.5375,41.8281 Q515.2719,41.8281 515.9203,41.9922 Q516.5688,42.1563 517.1156,42.5156 Z "/><text fill="#000000" font-family="sans-serif" font-size="12" lengthAdjust="spacingAndGlyphs" textLength="67" x="531.65" y="51.5508">Equipement</text><line style="stroke: #A80036; stroke-width: 1.5;" x1="485.5" x2="615.5" y1="62.6406" y2="62.6406"/><text fill="#000000" font-family="sans-serif" font-size="11" lengthAdjust="spacingAndGlyphs" textLength="26" x="490.5" y="95.8955">-Int id</text><text fill="#000000" font-family="sans-serif" font-size="11" lengthAdjust="spacingAndGlyphs" textLength="61" x="490.5" y="109.7314">-String name</text><text fill="#000000" font-family="sans-serif" font-size="11" lengthAdjust="spacingAndGlyphs" textLength="88" x="490.5" y="123.5674">-String description</text><text fill="#000000" font-family="sans-serif" font-size="11" lengthAdjust="spacingAndGlyphs" textLength="50" x="490.5" y="137.4033">-Int power</text><text fill="#000000" font-family="sans-serif" font-size="11" lengthAdjust="spacingAndGlyphs" textLength="78" x="490.5" y="151.2393">-Boolean isValid</text><text fill="#000000" font-family="sans-serif" font-size="11" lengthAdjust="spacingAndGlyphs" textLength="57" x="490.5" y="165.0752">-array price</text><text fill="#000000" font-family="sans-serif" font-size="11" lengthAdjust="spacingAndGlyphs" textLength="0" x="493.5" y="178.9111"/><line style="stroke: #A80036; stroke-width: 1.5;" x1="485.5" x2="533" y1="77.5586" y2="77.5586"/><text fill="#000000" font-family="sans-serif" font-size="11" lengthAdjust="spacingAndGlyphs" textLength="35" x="533" y="81.5596">Attribut</text><line style="stroke: #A80036; stroke-width: 1.5;" x1="568" x2="615.5" y1="77.5586" y2="77.5586"/><line style="stroke: #A80036; stroke-width: 1.0;" x1="485.5" x2="533" y1="192.2461" y2="192.2461"/><text fill="#000000" font-family="sans-serif" font-size="11" lengthAdjust="spacingAndGlyphs" textLength="35" x="533" y="196.2471">Method</text><line style="stroke: #A80036; stroke-width: 1.0;" x1="568" x2="615.5" y1="192.2461" y2="192.2461"/><text fill="#000000" font-family="sans-serif" font-size="11" lengthAdjust="spacingAndGlyphs" textLength="57" x="490.5" y="231.3369">+getId() : Int</text><text fill="#000000" font-family="sans-serif" font-size="11" lengthAdjust="spacingAndGlyphs" textLength="93" x="490.5" y="245.1729">+getName() : String</text><text fill="#000000" font-family="sans-serif" font-size="11" lengthAdjust="spacingAndGlyphs" textLength="120" x="490.5" y="259.0088">+getDescription() : String</text><text fill="#000000" font-family="sans-serif" font-size="11" lengthAdjust="spacingAndGlyphs" textLength="98" x="490.5" y="272.8447">+getPower() : String</text><text fill="#000000" font-family="sans-serif" font-size="11" lengthAdjust="spacingAndGlyphs" textLength="109" x="490.5" y="286.6807">+getIsValid() : Boolean</text><text fill="#000000" font-family="sans-serif" font-size="11" lengthAdjust="spacingAndGlyphs" textLength="90" x="490.5" y="300.5166">+getPrice() : String</text><text fill="#000000" font-family="sans-serif" font-size="11" lengthAdjust="spacingAndGlyphs" textLength="0" x="493.5" y="314.3525"/><line style="stroke: #A80036; stroke-width: 1.0; stroke-dasharray: 1.0,2.0;" x1="485.5" x2="518.5" y1="213" y2="213"/><text fill="#000000" font-family="sans-serif" font-size="11" lengthAdjust="spacingAndGlyphs" textLength="64" x="518.5" y="217.001">Simple Getter</text><line style="stroke: #A80036; stroke-width: 1.0; stroke-dasharray: 1.0,2.0;" x1="582.5" x2="615.5" y1="213" y2="213"/><text fill="#000000" font-family="sans-serif" font-size="11" lengthAdjust="spacingAndGlyphs" textLength="93" x="490.5" y="346.0244">+setName() : String</text><text fill="#000000" font-family="sans-serif" font-size="11" lengthAdjust="spacingAndGlyphs" textLength="120" x="490.5" y="359.8604">+setDescription() : String</text><text fill="#000000" font-family="sans-serif" font-size="11" lengthAdjust="spacingAndGlyphs" textLength="98" x="490.5" y="373.6963">+setPower() : String</text><text fill="#000000" font-family="sans-serif" font-size="11" lengthAdjust="spacingAndGlyphs" textLength="109" x="490.5" y="387.5322">+setIsValid() : Boolean</text><text fill="#000000" font-family="sans-serif" font-size="11" lengthAdjust="spacingAndGlyphs" textLength="88" x="490.5" y="401.3682">+setPrice() : array</text><text fill="#000000" font-family="sans-serif" font-size="11" lengthAdjust="spacingAndGlyphs" textLength="0" x="493.5" y="415.2041"/><line style="stroke: #A80036; stroke-width: 1.0; stroke-dasharray: 1.0,2.0;" x1="485.5" x2="519.5" y1="327.6875" y2="327.6875"/><text fill="#000000" font-family="sans-serif" font-size="11" lengthAdjust="spacingAndGlyphs" textLength="62" x="519.5" y="331.6885">Simple setter</text><line style="stroke: #A80036; stroke-width: 1.0; stroke-dasharray: 1.0,2.0;" x1="581.5" x2="615.5" y1="327.6875" y2="327.6875"/><!--class Staff--><rect fill="#FEFECE" filter="url(#fb47zdxyp9rhc)" height="438.6523" id="Staff" style="stroke: #A80036; stroke-width: 1.5;" width="125" x="244" y="499.6406"/><ellipse cx="290.25" cy="515.6406" fill="#ADD1B2" rx="11" ry="11" style="stroke: #A80036; stroke-width: 1.0;"/><path d="M293.0156,511.5156 Q293.1719,511.2969 293.3594,511.1875 Q293.5469,511.0781 293.7656,511.0781 Q294.1406,511.0781 294.375,511.3359 Q294.6094,511.5938 294.6094,512.2031 L294.6094,513.6563 Q294.6094,514.2656 294.375,514.5313 Q294.1406,514.7969 293.7656,514.7969 Q293.4219,514.7969 293.2188,514.5938 Q293.0156,514.4063 292.9063,513.8906 Q292.8594,513.5313 292.6719,513.3438 Q292.3438,512.9688 291.7344,512.75 Q291.125,512.5313 290.5,512.5313 Q289.7344,512.5313 289.1016,512.8594 Q288.4688,513.1875 287.9766,513.9375 Q287.4844,514.6875 287.4844,515.7188 L287.4844,516.8125 Q287.4844,518.0469 288.375,518.8672 Q289.2656,519.6875 290.8594,519.6875 Q291.7969,519.6875 292.4531,519.4375 Q292.8438,519.2813 293.2656,518.8438 Q293.5313,518.5781 293.6797,518.5 Q293.8281,518.4219 294.0313,518.4219 Q294.3594,518.4219 294.6172,518.6797 Q294.875,518.9375 294.875,519.2813 Q294.875,519.625 294.5313,520.0313 Q294.0313,520.6094 293.2344,520.9375 Q292.1563,521.3906 290.8594,521.3906 Q289.3438,521.3906 288.1406,520.7656 Q287.1563,520.2656 286.4688,519.1953 Q285.7813,518.125 285.7813,516.8438 L285.7813,515.6875 Q285.7813,514.3594 286.3984,513.2109 Q287.0156,512.0625 288.1094,511.4453 Q289.2031,510.8281 290.4375,510.8281 Q291.1719,510.8281 291.8203,510.9922 Q292.4688,511.1563 293.0156,511.5156 Z "/><text fill="#000000" font-family="sans-serif" font-size="12" lengthAdjust="spacingAndGlyphs" textLength="24" x="310.75" y="520.5508">Staff</text><line style="stroke: #A80036; stroke-width: 1.5;" x1="245" x2="368" y1="531.6406" y2="531.6406"/><text fill="#000000" font-family="sans-serif" font-size="11" lengthAdjust="spacingAndGlyphs" textLength="26" x="250" y="564.8955">-Int id</text><text fill="#000000" font-family="sans-serif" font-size="11" lengthAdjust="spacingAndGlyphs" textLength="80" x="250" y="578.7314">-String firstname</text><text fill="#000000" font-family="sans-serif" font-size="11" lengthAdjust="spacingAndGlyphs" textLength="78" x="250" y="592.5674">-String lastname</text><text fill="#000000" font-family="sans-serif" font-size="11" lengthAdjust="spacingAndGlyphs" textLength="59" x="250" y="606.4033">-String email</text><text fill="#000000" font-family="sans-serif" font-size="11" lengthAdjust="spacingAndGlyphs" textLength="89" x="250" y="620.2393">-String ss_number</text><text fill="#000000" font-family="sans-serif" font-size="11" lengthAdjust="spacingAndGlyphs" textLength="81" x="250" y="634.0752">-date hiring_date</text><text fill="#000000" font-family="sans-serif" font-size="11" lengthAdjust="spacingAndGlyphs" textLength="69" x="250" y="647.9111">-date me_date</text><text fill="#000000" font-family="sans-serif" font-size="11" lengthAdjust="spacingAndGlyphs" textLength="65" x="250" y="661.7471">-String status</text><text fill="#000000" font-family="sans-serif" font-size="11" lengthAdjust="spacingAndGlyphs" textLength="110" x="250" y="675.583">-String coastal_licence</text><text fill="#000000" font-family="sans-serif" font-size="11" lengthAdjust="spacingAndGlyphs" textLength="70" x="250" y="689.4189">-Boolean bees</text><text fill="#000000" font-family="sans-serif" font-size="11" lengthAdjust="spacingAndGlyphs" textLength="57" x="250" y="703.2549">-array roles</text><text fill="#000000" font-family="sans-serif" font-size="11" lengthAdjust="spacingAndGlyphs" textLength="85" x="250" y="717.0908">-int contract_type</text><line style="stroke: #A80036; stroke-width: 1.5;" x1="245" x2="289" y1="546.5586" y2="546.5586"/><text fill="#000000" font-family="sans-serif" font-size="11" lengthAdjust="spacingAndGlyphs" textLength="35" x="289" y="550.5596">Attribut</text><line style="stroke: #A80036; stroke-width: 1.5;" x1="324" x2="368" y1="546.5586" y2="546.5586"/><text fill="#000000" font-family="sans-serif" font-size="11" lengthAdjust="spacingAndGlyphs" textLength="85" x="250" y="748.7627">-String password</text><text fill="#000000" font-family="sans-serif" font-size="11" lengthAdjust="spacingAndGlyphs" textLength="0" x="253" y="762.5986"/><line style="stroke: #A80036; stroke-width: 1.0; stroke-dasharray: 1.0,2.0;" x1="245" x2="282" y1="730.4258" y2="730.4258"/><text fill="#000000" font-family="sans-serif" font-size="11" lengthAdjust="spacingAndGlyphs" textLength="49" x="282" y="734.4268">encrypted</text><line style="stroke: #A80036; stroke-width: 1.0; stroke-dasharray: 1.0,2.0;" x1="331" x2="368" y1="730.4258" y2="730.4258"/><line style="stroke: #A80036; stroke-width: 1.0;" x1="245" x2="289" y1="775.9336" y2="775.9336"/><text fill="#000000" font-family="sans-serif" font-size="11" lengthAdjust="spacingAndGlyphs" textLength="35" x="289" y="779.9346">Method</text><line style="stroke: #A80036; stroke-width: 1.0;" x1="324" x2="368" y1="775.9336" y2="775.9336"/><text fill="#000000" font-family="sans-serif" font-size="11" lengthAdjust="spacingAndGlyphs" textLength="57" x="250" y="815.0244">+getId() : Int</text><text fill="#000000" font-family="sans-serif" font-size="11" lengthAdjust="spacingAndGlyphs" textLength="113" x="250" y="828.8604">+getFirstname() : String</text><line style="stroke: #A80036; stroke-width: 1.0; stroke-dasharray: 1.0,2.0;" x1="245" x2="274.5" y1="796.6875" y2="796.6875"/><text fill="#000000" font-family="sans-serif" font-size="11" lengthAdjust="spacingAndGlyphs" textLength="64" x="274.5" y="800.6885">Simple Getter</text><line style="stroke: #A80036; stroke-width: 1.0; stroke-dasharray: 1.0,2.0;" x1="338.5" x2="368" y1="796.6875" y2="796.6875"/><line style="stroke: #A80036; stroke-width: 1.0; stroke-dasharray: 1.0,2.0;" x1="245" x2="368" y1="835.2773" y2="835.2773"/><text fill="#000000" font-family="sans-serif" font-size="11" lengthAdjust="spacingAndGlyphs" textLength="97" x="250" y="850.6963">and other Getters ...</text><text fill="#000000" font-family="sans-serif" font-size="11" lengthAdjust="spacingAndGlyphs" textLength="0" x="253" y="864.5322"/><text fill="#000000" font-family="sans-serif" font-size="11" lengthAdjust="spacingAndGlyphs" textLength="113" x="250" y="896.2041">+setFirstname() : String</text><text fill="#000000" font-family="sans-serif" font-size="11" lengthAdjust="spacingAndGlyphs" textLength="113" x="250" y="910.04">+setLastname() : String</text><line style="stroke: #A80036; stroke-width: 1.0; stroke-dasharray: 1.0,2.0;" x1="245" x2="275.5" y1="877.8672" y2="877.8672"/><text fill="#000000" font-family="sans-serif" font-size="11" lengthAdjust="spacingAndGlyphs" textLength="62" x="275.5" y="881.8682">Simple setter</text><line style="stroke: #A80036; stroke-width: 1.0; stroke-dasharray: 1.0,2.0;" x1="337.5" x2="368" y1="877.8672" y2="877.8672"/><line style="stroke: #A80036; stroke-width: 1.0; stroke-dasharray: 1.0,2.0;" x1="245" x2="368" y1="916.457" y2="916.457"/><text fill="#000000" font-family="sans-serif" font-size="11" lengthAdjust="spacingAndGlyphs" textLength="96" x="250" y="931.876">and other Setters ...</text><!--class Booking--><rect fill="#FEFECE" filter="url(#fb47zdxyp9rhc)" height="351.6367" id="Booking" style="stroke: #A80036; stroke-width: 1.5;" width="139" x="237" y="50.1406"/><ellipse cx="279.9" cy="66.1406" fill="#ADD1B2" rx="11" ry="11" style="stroke: #A80036; stroke-width: 1.0;"/><path d="M282.6656,62.0156 Q282.8219,61.7969 283.0094,61.6875 Q283.1969,61.5781 283.4156,61.5781 Q283.7906,61.5781 284.025,61.8359 Q284.2594,62.0938 284.2594,62.7031 L284.2594,64.1563 Q284.2594,64.7656 284.025,65.0313 Q283.7906,65.2969 283.4156,65.2969 Q283.0719,65.2969 282.8688,65.0938 Q282.6656,64.9063 282.5563,64.3906 Q282.5094,64.0313 282.3219,63.8438 Q281.9938,63.4688 281.3844,63.25 Q280.775,63.0313 280.15,63.0313 Q279.3844,63.0313 278.7516,63.3594 Q278.1188,63.6875 277.6266,64.4375 Q277.1344,65.1875 277.1344,66.2188 L277.1344,67.3125 Q277.1344,68.5469 278.025,69.3672 Q278.9156,70.1875 280.5094,70.1875 Q281.4469,70.1875 282.1031,69.9375 Q282.4938,69.7813 282.9156,69.3438 Q283.1813,69.0781 283.3297,69 Q283.4781,68.9219 283.6813,68.9219 Q284.0094,68.9219 284.2672,69.1797 Q284.525,69.4375 284.525,69.7813 Q284.525,70.125 284.1813,70.5313 Q283.6813,71.1094 282.8844,71.4375 Q281.8063,71.8906 280.5094,71.8906 Q278.9938,71.8906 277.7906,71.2656 Q276.8063,70.7656 276.1188,69.6953 Q275.4313,68.625 275.4313,67.3438 L275.4313,66.1875 Q275.4313,64.8594 276.0484,63.7109 Q276.6656,62.5625 277.7594,61.9453 Q278.8531,61.3281 280.0875,61.3281 Q280.8219,61.3281 281.4703,61.4922 Q282.1188,61.6563 282.6656,62.0156 Z "/><text fill="#000000" font-family="sans-serif" font-size="12" lengthAdjust="spacingAndGlyphs" textLength="45" x="300.1" y="71.0508">Booking</text><line style="stroke: #A80036; stroke-width: 1.5;" x1="238" x2="375" y1="82.1406" y2="82.1406"/><text fill="#000000" font-family="sans-serif" font-size="11" lengthAdjust="spacingAndGlyphs" textLength="32" x="243" y="115.3955">-id : int</text><text fill="#000000" font-family="sans-serif" font-size="11" lengthAdjust="spacingAndGlyphs" textLength="74" x="243" y="129.2314">-date : datetime</text><text fill="#000000" font-family="sans-serif" font-size="11" lengthAdjust="spacingAndGlyphs" textLength="102" x="243" y="143.0674">-start_date : datetime</text><text fill="#000000" font-family="sans-serif" font-size="11" lengthAdjust="spacingAndGlyphs" textLength="98" x="243" y="156.9033">-end_date : datetime</text><text fill="#000000" font-family="sans-serif" font-size="11" lengthAdjust="spacingAndGlyphs" textLength="61" x="243" y="170.7393">-staff_id : int</text><text fill="#000000" font-family="sans-serif" font-size="11" lengthAdjust="spacingAndGlyphs" textLength="87" x="243" y="184.5752">-equipment_id : int</text><text fill="#000000" font-family="sans-serif" font-size="11" lengthAdjust="spacingAndGlyphs" textLength="83" x="243" y="198.4111">-customer_id : int</text><text fill="#000000" font-family="sans-serif" font-size="11" lengthAdjust="spacingAndGlyphs" textLength="0" x="246" y="212.2471"/><text fill="#000000" font-family="sans-serif" font-size="11" lengthAdjust="spacingAndGlyphs" textLength="0" x="246" y="226.083"/><line style="stroke: #A80036; stroke-width: 1.5;" x1="238" x2="289" y1="97.0586" y2="97.0586"/><text fill="#000000" font-family="sans-serif" font-size="11" lengthAdjust="spacingAndGlyphs" textLength="35" x="289" y="101.0596">Attribut</text><line style="stroke: #A80036; stroke-width: 1.5;" x1="324" x2="375" y1="97.0586" y2="97.0586"/><line style="stroke: #A80036; stroke-width: 1.0;" x1="238" x2="289" y1="239.418" y2="239.418"/><text fill="#000000" font-family="sans-serif" font-size="11" lengthAdjust="spacingAndGlyphs" textLength="35" x="289" y="243.4189">Method</text><line style="stroke: #A80036; stroke-width: 1.0;" x1="324" x2="375" y1="239.418" y2="239.418"/><text fill="#000000" font-family="sans-serif" font-size="11" lengthAdjust="spacingAndGlyphs" textLength="57" x="243" y="278.5088">+getId() : Int</text><text fill="#000000" font-family="sans-serif" font-size="11" lengthAdjust="spacingAndGlyphs" textLength="99" x="243" y="292.3447">+getdate() : datetime</text><line style="stroke: #A80036; stroke-width: 1.0; stroke-dasharray: 1.0,2.0;" x1="238" x2="274.5" y1="260.1719" y2="260.1719"/><text fill="#000000" font-family="sans-serif" font-size="11" lengthAdjust="spacingAndGlyphs" textLength="64" x="274.5" y="264.1729">Simple Getter</text><line style="stroke: #A80036; stroke-width: 1.0; stroke-dasharray: 1.0,2.0;" x1="338.5" x2="375" y1="260.1719" y2="260.1719"/><line style="stroke: #A80036; stroke-width: 1.0; stroke-dasharray: 1.0,2.0;" x1="238" x2="375" y1="298.7617" y2="298.7617"/><text fill="#000000" font-family="sans-serif" font-size="11" lengthAdjust="spacingAndGlyphs" textLength="97" x="243" y="314.1807">and other Getters ...</text><text fill="#000000" font-family="sans-serif" font-size="11" lengthAdjust="spacingAndGlyphs" textLength="0" x="246" y="328.0166"/><text fill="#000000" font-family="sans-serif" font-size="11" lengthAdjust="spacingAndGlyphs" textLength="99" x="243" y="359.6885">+setdate() : datetime</text><text fill="#000000" font-family="sans-serif" font-size="11" lengthAdjust="spacingAndGlyphs" textLength="127" x="243" y="373.5244">+setstart_date() : datetime</text><line style="stroke: #A80036; stroke-width: 1.0; stroke-dasharray: 1.0,2.0;" x1="238" x2="275.5" y1="341.3516" y2="341.3516"/><text fill="#000000" font-family="sans-serif" font-size="11" lengthAdjust="spacingAndGlyphs" textLength="62" x="275.5" y="345.3525">Simple setter</text><line style="stroke: #A80036; stroke-width: 1.0; stroke-dasharray: 1.0,2.0;" x1="337.5" x2="375" y1="341.3516" y2="341.3516"/><line style="stroke: #A80036; stroke-width: 1.0; stroke-dasharray: 1.0,2.0;" x1="238" x2="375" y1="379.9414" y2="379.9414"/><text fill="#000000" font-family="sans-serif" font-size="11" lengthAdjust="spacingAndGlyphs" textLength="96" x="243" y="395.3604">and other Setters ...</text><!--class Leave--><rect fill="#FEFECE" filter="url(#fb47zdxyp9rhc)" height="351.6367" id="Leave" style="stroke: #A80036; stroke-width: 1.5;" width="120" x="19.5" y="543.1406"/><ellipse cx="59.25" cy="559.1406" fill="#ADD1B2" rx="11" ry="11" style="stroke: #A80036; stroke-width: 1.0;"/><path d="M62.0156,555.0156 Q62.1719,554.7969 62.3594,554.6875 Q62.5469,554.5781 62.7656,554.5781 Q63.1406,554.5781 63.375,554.8359 Q63.6094,555.0938 63.6094,555.7031 L63.6094,557.1563 Q63.6094,557.7656 63.375,558.0313 Q63.1406,558.2969 62.7656,558.2969 Q62.4219,558.2969 62.2188,558.0938 Q62.0156,557.9063 61.9063,557.3906 Q61.8594,557.0313 61.6719,556.8438 Q61.3438,556.4688 60.7344,556.25 Q60.125,556.0313 59.5,556.0313 Q58.7344,556.0313 58.1016,556.3594 Q57.4688,556.6875 56.9766,557.4375 Q56.4844,558.1875 56.4844,559.2188 L56.4844,560.3125 Q56.4844,561.5469 57.375,562.3672 Q58.2656,563.1875 59.8594,563.1875 Q60.7969,563.1875 61.4531,562.9375 Q61.8438,562.7813 62.2656,562.3438 Q62.5313,562.0781 62.6797,562 Q62.8281,561.9219 63.0313,561.9219 Q63.3594,561.9219 63.6172,562.1797 Q63.875,562.4375 63.875,562.7813 Q63.875,563.125 63.5313,563.5313 Q63.0313,564.1094 62.2344,564.4375 Q61.1563,564.8906 59.8594,564.8906 Q58.3438,564.8906 57.1406,564.2656 Q56.1563,563.7656 55.4688,562.6953 Q54.7813,561.625 54.7813,560.3438 L54.7813,559.1875 Q54.7813,557.8594 55.3984,556.7109 Q56.0156,555.5625 57.1094,554.9453 Q58.2031,554.3281 59.4375,554.3281 Q60.1719,554.3281 60.8203,554.4922 Q61.4688,554.6563 62.0156,555.0156 Z "/><text fill="#000000" font-family="sans-serif" font-size="12" lengthAdjust="spacingAndGlyphs" textLength="33" x="78.75" y="564.0508">Leave</text><line style="stroke: #A80036; stroke-width: 1.5;" x1="20.5" x2="138.5" y1="575.1406" y2="575.1406"/><text fill="#000000" font-family="sans-serif" font-size="11" lengthAdjust="spacingAndGlyphs" textLength="32" x="25.5" y="608.3955">-id : int</text><text fill="#000000" font-family="sans-serif" font-size="11" lengthAdjust="spacingAndGlyphs" textLength="61" x="25.5" y="622.2314">-staff_id : int</text><text fill="#000000" font-family="sans-serif" font-size="11" lengthAdjust="spacingAndGlyphs" textLength="83" x="25.5" y="636.0674">-start_date : date</text><text fill="#000000" font-family="sans-serif" font-size="11" lengthAdjust="spacingAndGlyphs" textLength="79" x="25.5" y="649.9033">-end_date : date</text><text fill="#000000" font-family="sans-serif" font-size="11" lengthAdjust="spacingAndGlyphs" textLength="60" x="25.5" y="663.7393">-type : enum</text><text fill="#000000" font-family="sans-serif" font-size="11" lengthAdjust="spacingAndGlyphs" textLength="62" x="25.5" y="677.5752">-details : text</text><text fill="#000000" font-family="sans-serif" font-size="11" lengthAdjust="spacingAndGlyphs" textLength="0" x="28.5" y="691.4111"/><text fill="#000000" font-family="sans-serif" font-size="11" lengthAdjust="spacingAndGlyphs" textLength="0" x="28.5" y="705.2471"/><line style="stroke: #A80036; stroke-width: 1.5;" x1="20.5" x2="62" y1="590.0586" y2="590.0586"/><text fill="#000000" font-family="sans-serif" font-size="11" lengthAdjust="spacingAndGlyphs" textLength="35" x="62" y="594.0596">Attribut</text><line style="stroke: #A80036; stroke-width: 1.5;" x1="97" x2="138.5" y1="590.0586" y2="590.0586"/><line style="stroke: #A80036; stroke-width: 1.0;" x1="20.5" x2="62" y1="718.582" y2="718.582"/><text fill="#000000" font-family="sans-serif" font-size="11" lengthAdjust="spacingAndGlyphs" textLength="35" x="62" y="722.583">Method</text><line style="stroke: #A80036; stroke-width: 1.0;" x1="97" x2="138.5" y1="718.582" y2="718.582"/><text fill="#000000" font-family="sans-serif" font-size="11" lengthAdjust="spacingAndGlyphs" textLength="57" x="25.5" y="757.6729">+getId() : Int</text><text fill="#000000" font-family="sans-serif" font-size="11" lengthAdjust="spacingAndGlyphs" textLength="88" x="25.5" y="771.5088">+getType() : enum</text><line style="stroke: #A80036; stroke-width: 1.0; stroke-dasharray: 1.0,2.0;" x1="20.5" x2="47.5" y1="739.3359" y2="739.3359"/><text fill="#000000" font-family="sans-serif" font-size="11" lengthAdjust="spacingAndGlyphs" textLength="64" x="47.5" y="743.3369">Simple Getter</text><line style="stroke: #A80036; stroke-width: 1.0; stroke-dasharray: 1.0,2.0;" x1="111.5" x2="138.5" y1="739.3359" y2="739.3359"/><line style="stroke: #A80036; stroke-width: 1.0; stroke-dasharray: 1.0,2.0;" x1="20.5" x2="138.5" y1="777.9258" y2="777.9258"/><text fill="#000000" font-family="sans-serif" font-size="11" lengthAdjust="spacingAndGlyphs" textLength="97" x="25.5" y="793.3447">and other Getters ...</text><text fill="#000000" font-family="sans-serif" font-size="11" lengthAdjust="spacingAndGlyphs" textLength="0" x="28.5" y="807.1807"/><text fill="#000000" font-family="sans-serif" font-size="11" lengthAdjust="spacingAndGlyphs" textLength="0" x="28.5" y="821.0166"/><text fill="#000000" font-family="sans-serif" font-size="11" lengthAdjust="spacingAndGlyphs" textLength="108" x="25.5" y="852.6885">+setstart_date() : date</text><text fill="#000000" font-family="sans-serif" font-size="11" lengthAdjust="spacingAndGlyphs" textLength="104" x="25.5" y="866.5244">+setend_date() : date</text><line style="stroke: #A80036; stroke-width: 1.0; stroke-dasharray: 1.0,2.0;" x1="20.5" x2="48.5" y1="834.3516" y2="834.3516"/><text fill="#000000" font-family="sans-serif" font-size="11" lengthAdjust="spacingAndGlyphs" textLength="62" x="48.5" y="838.3525">Simple setter</text><line style="stroke: #A80036; stroke-width: 1.0; stroke-dasharray: 1.0,2.0;" x1="110.5" x2="138.5" y1="834.3516" y2="834.3516"/><line style="stroke: #A80036; stroke-width: 1.0; stroke-dasharray: 1.0,2.0;" x1="20.5" x2="138.5" y1="872.9414" y2="872.9414"/><text fill="#000000" font-family="sans-serif" font-size="11" lengthAdjust="spacingAndGlyphs" textLength="96" x="25.5" y="888.3604">and other Setters ...</text><!--reverse link Booking to Equipement--><path d="M389.111,226.1406 C420.087,226.1406 454.859,226.1406 484.173,226.1406 " fill="none" id="Booking&lt;-Equipement" style="stroke: #A80036; stroke-width: 1.0;"/><polygon fill="#A80036" points="376.094,226.1406,382.094,230.1406,388.094,226.1406,382.094,222.1406,376.094,226.1406" style="stroke: #A80036; stroke-width: 1.0;"/><text fill="#000000" font-family="sans-serif" font-size="13" lengthAdjust="spacingAndGlyphs" textLength="72" x="394.25" y="219.6357">Composition</text><text fill="#000000" font-family="sans-serif" font-size="13" lengthAdjust="spacingAndGlyphs" textLength="32" x="383.9847" y="240.4062">many</text><text fill="#000000" font-family="sans-serif" font-size="13" lengthAdjust="spacingAndGlyphs" textLength="32" x="444.5835" y="240.3903">many</text><!--link Customer to Booking--><path d="M131.032,226.1406 C159.345,226.1406 193.21,226.1406 223.604,226.1406 " fill="none" id="Customer-&gt;Booking" style="stroke: #A80036; stroke-width: 1.0;"/><polygon fill="#FFFFFF" points="236.841,226.1406,230.841,222.1406,224.841,226.1406,230.841,230.1406,236.841,226.1406" style="stroke: #A80036; stroke-width: 1.0;"/><text fill="#000000" font-family="sans-serif" font-size="13" lengthAdjust="spacingAndGlyphs" textLength="69" x="149.5" y="219.6357">Aggregation</text><text fill="#000000" font-family="sans-serif" font-size="13" lengthAdjust="spacingAndGlyphs" textLength="7" x="139.0797" y="222.6634">1</text><text fill="#000000" font-family="sans-serif" font-size="13" lengthAdjust="spacingAndGlyphs" textLength="7" x="221.8392" y="222.7998">1</text><!--reverse link Booking to Staff--><path d="M306.5,415.6616 C306.5,443.0086 306.5,471.3546 306.5,499.2366 " fill="none" id="Booking&lt;-Staff" style="stroke: #A80036; stroke-width: 1.0;"/><polygon fill="#A80036" points="306.5,402.3236,302.5,408.3236,306.5,414.3236,310.5,408.3236,306.5,402.3236" style="stroke: #A80036; stroke-width: 1.0;"/><text fill="#000000" font-family="sans-serif" font-size="13" lengthAdjust="spacingAndGlyphs" textLength="72" x="307.5" y="466.1357">Composition</text><text fill="#000000" font-family="sans-serif" font-size="13" lengthAdjust="spacingAndGlyphs" textLength="32" x="273.875" y="423.0274">many</text><text fill="#000000" font-family="sans-serif" font-size="13" lengthAdjust="spacingAndGlyphs" textLength="32" x="273.925" y="488.554">many</text><!--link Leave to Staff--><path d="M145.057,719.1406 C174.375,719.1406 208.921,719.1406 238.517,719.1406 " fill="none" id="Leave-Staff" style="stroke: #A80036; stroke-width: 1.0;"/><polygon fill="#A80036" points="243.602,719.1406,234.602,715.1406,238.602,719.1406,234.602,723.1406,243.602,719.1406" style="stroke: #A80036; stroke-width: 1.0;"/><polygon fill="#A80036" points="139.736,719.1406,148.736,723.1406,144.736,719.1406,148.736,715.1406,139.736,719.1406" style="stroke: #A80036; stroke-width: 1.0;"/><text fill="#000000" font-family="sans-serif" font-size="13" lengthAdjust="spacingAndGlyphs" textLength="68" x="157.75" y="712.6357">Association</text><text fill="#000000" font-family="sans-serif" font-size="13" lengthAdjust="spacingAndGlyphs" textLength="7" x="147.5038" y="715.7043">1</text><text fill="#000000" font-family="sans-serif" font-size="13" lengthAdjust="spacingAndGlyphs" textLength="7" x="228.9247" y="715.7512">1</text><!--
@startuml

title  Class Diagram

skinparam classAttributeIconSize 0


class Customer{
    __ Attribut __
    -Int id
    -String firstname
    -String lastname
    -String email
    -String adress
    -String phone
    -date birth_date
    -String coastal_license
    -int reduction

    - - Method - -
    .. Getter ..
    + getId() : Int
    + getFirstname() : String
    ..
    and other Getters ...

    .. Setter ..
    + setFirstname() : String
    + setLastname() : String
        ..
    and other Setters ...
}

class Equipement {
    __ Attribut __
    -Int id
    -String name
    -String description
    -Int power
    -Boolean isValid
    -array price

    - - Method - -
    .. Simple Getter ..
    + getId() : Int
    + getName() : String
    + getDescription() : String
    + getPower() : String
    + getIsValid() : Boolean
    + getPrice() : String

    .. Simple setter ..
    + setName() : String
    + setDescription() : String
    + setPower() : String
    + setIsValid() : Boolean
    + setPrice() : array

}


class Staff{
    __ Attribut __
    -Int id
    -String firstname
    -String lastname
    -String email
    -String ss_number
    -date hiring_date
    -date me_date
    -String status
    -String coastal_licence
    -Boolean bees
    -array roles
    -int contract_type
    .. encrypted ..
    -String password

    - - Method - -
    .. Simple Getter ..
    + getId() : Int
    + getFirstname() : String
    ..
    and other Getters ...

    .. Simple setter ..
    + setFirstname() : String
    + setLastname() : String
    ..
    and other Setters ...
}


class Booking{
    __ Attribut __
    - id : int 
	- date : datetime 
	- start_date : datetime 
	- end_date : datetime 
	- staff_id : int
	- equipment_id : int
	- customer_id : int 


    - - Method - -
    .. Simple Getter ..
    + getId() : Int
    + getdate() : datetime
    ..
    and other Getters ...

    .. Simple setter ..
    + setdate() : datetime
    + setstart_date() : datetime
    ..
    and other Setters ...
}


class Leave {
    __ Attribut __
    - id : int 
	- staff_id : int
	- start_date : date 
	- end_date : date
	- type : enum
	- details : text 


    - - Method - -
    .. Simple Getter ..
    + getId() : Int
    + getType() : enum
    ..
    and other Getters ...


    .. Simple setter ..
    + setstart_date() : date
    + setend_date() : date
    ..
    and other Setters ...
}

Booking "many"*-right-"many" Equipement: Composition
Booking  "1" o-left- "1" Customer: Aggregation
Booking "many"*-down-"many" Staff: Composition
Staff "1" <-left-> "1" Leave: Association


@enduml

PlantUML version 1.2019.09(Mon Aug 26 18:19:51 CEST 2019)
(GPL source distribution)
Java Runtime: Java(TM) SE Runtime Environment
JVM: Java HotSpot(TM) 64-Bit Server VM
Java Version: 1.8.0_231-b11
Operating System: Windows 10
OS Version: 10.0
Default Encoding: Cp1252
Language: fr
Country: FR
--></g></svg>